<?xml version="1.0" encoding="UTF-8" standalone="no"?>
<svg
   height="128"
   width="128"
   version="1.1"
   id="svg26"
   sodipodi:docname="old_icon.svg"
   inkscape:version="1.2 (dc2aedaf03, 2022-05-15)"
   xmlns:inkscape="http://www.inkscape.org/namespaces/inkscape"
   xmlns:sodipodi="http://sodipodi.sourceforge.net/DTD/sodipodi-0.dtd"
   xmlns="http://www.w3.org/2000/svg"
   xmlns:svg="http://www.w3.org/2000/svg">
  <defs
     id="defs30" />
  <sodipodi:namedview
     id="namedview28"
     pagecolor="#ffffff"
     bordercolor="#000000"
     borderopacity="0.25"
     inkscape:showpageshadow="2"
     inkscape:pageopacity="0.0"
     inkscape:pagecheckerboard="0"
     inkscape:deskcolor="#d1d1d1"
     showgrid="false"
     inkscape:zoom="3.140625"
     inkscape:cx="78.169154"
     inkscape:cy="53.014925"
     inkscape:window-width="1920"
     inkscape:window-height="991"
     inkscape:window-x="1911"
     inkscape:window-y="-9"
     inkscape:window-maximized="1"
     inkscape:current-layer="svg26" />
  <g
     transform="translate(32 32)"
     id="g6">
    <path
       d="m-16-32c-8.86 0-16 7.13-16 15.99v95.98c0 8.86 7.13 15.99 16 15.99h96c8.86 0 16-7.13 16-15.99v-95.98c0-8.85-7.14-15.99-16-15.99z"
       fill="#363d52"
       id="path2" />
    <path
       d="m-16-32c-8.86 0-16 7.13-16 15.99v95.98c0 8.86 7.13 15.99 16 15.99h96c8.86 0 16-7.13 16-15.99v-95.98c0-8.85-7.14-15.99-16-15.99zm0 4h96c6.64 0 12 5.35 12 11.99v95.98c0 6.64-5.35 11.99-12 11.99h-96c-6.64 0-12-5.35-12-11.99v-95.98c0-6.64 5.36-11.99 12-11.99z"
       fill-opacity=".4"
       id="path4" />
  </g>
  <path
     d="m 101.83766,93.201404 c 0,0 -0.13627,-0.83609 -0.21594,-0.828543 l -15.171224,1.463787 c -1.207174,0.116566 -2.144735,1.079286 -2.229434,2.288975 l -0.416788,5.973807 -11.737131,0.83735 -0.798353,-5.414039 C 71.091006,96.318503 70.039394,95.410712 68.822157,95.410712 H 52.809812 c -1.216817,0 -2.268429,0.907791 -2.446214,2.112029 l -0.798772,5.414039 -11.737131,-0.83735 -0.416787,-5.973807 c -0.0847,-1.210108 -1.022261,-2.172828 -2.229435,-2.289394 l -15.17877,-1.463368 c -0.07841,-0.0075 -0.135854,0.829382 -0.214264,0.829382 l -0.02055,3.283142 12.854993,2.073035 0.42098,6.02706 c 0.08512,1.22017 1.069643,2.20679 2.290653,2.29443 l 16.164552,1.15308 c 0.06122,0.004 0.121598,0.007 0.181977,0.007 1.214721,0 2.264656,-0.90821 2.442441,-2.11245 l 0.821414,-5.57086 h 11.742582 l 0.821415,5.57086 c 0.177365,1.20382 1.228558,2.11203 2.444956,2.11203 0.05954,0 0.119082,-0.002 0.177365,-0.006 l 16.166653,-1.15306 c 1.220591,-0.0876 2.205534,-1.07426 2.290652,-2.29443 l 0.420561,-6.02706 12.849547,-2.082259 z"
     fill="#ffffff"
     id="path8"
     style="stroke-width:4.16261" />
  <path
     d="m 102.88243,76.484986 c 0,0 -0.13627,-0.83609 -0.21594,-0.828543 L 87.495272,77.12023 c -1.207174,0.116566 -2.144735,1.079286 -2.229434,2.288975 l -0.416788,5.973807 -11.737131,0.83735 -0.798353,-5.414039 C 72.135782,79.602085 71.08417,78.694294 69.866933,78.694294 H 53.854588 c -1.216817,0 -2.268429,0.907791 -2.446214,2.112029 l -0.798772,5.414039 -11.737131,-0.83735 -0.416787,-5.973807 c -0.0847,-1.210108 -1.022261,-2.172828 -2.229435,-2.289394 l -15.17877,-1.463368 c -0.07841,-0.0075 -0.135854,0.829382 -0.214264,0.829382 l -0.02055,3.283142 12.854993,2.073035 0.42098,6.02706 c 0.08512,1.22017 1.069643,2.20679 2.290653,2.29443 l 16.164552,1.15308 c 0.06122,0.004 0.121598,0.007 0.181977,0.007 1.214721,0 2.264656,-0.90821 2.442441,-2.11245 l 0.821414,-5.57086 h 11.742582 l 0.821415,5.57086 c 0.177365,1.20382 1.228558,2.11203 2.444956,2.11203 0.05954,0 0.119082,-0.002 0.177365,-0.006 l 16.166653,-1.15306 c 1.220591,-0.0876 2.205534,-1.07426 2.290652,-2.29443 l 0.420561,-6.02706 12.849541,-2.082259 z"
     fill="#ffffff"
     id="path198"
     style="stroke-width:4.16261" />
  <path
     d="m 20.743471,51.728897 v 19.922765 2.530494 2.302812 c 0.04528,4.2e-4 0.09057,0.0021 0.135435,0.0063 l 15.177093,1.463368 c 0.794999,0.07673 1.418083,0.716588 1.473431,1.513264 l 0.467942,6.699624 13.239075,0.94469 0.911984,-6.183462 c 0.118243,-0.801707 0.8059,-1.39586 1.616832,-1.39586 h 16.012345 c 0.810513,0 1.49817,0.594153 1.616414,1.39586 l 0.911984,6.183462 13.239493,-0.94469 0.467523,-6.699624 c 0.05577,-0.796676 0.678433,-1.436113 1.473431,-1.513264 l 15.171217,-1.463368 c 0.0449,-0.0042 0.0897,-0.0059 0.13502,-0.0063 v -1.975336 l 0.006,-0.0021 V 51.728897 C 112.57526,41.207482 102.75486,30.232364 91.82008,37.431921 90.984778,34.2639 86.694739,32.208698 81.685736,32.528957 129.32009,-2.7527958 92.172126,3.849522 66.652672,25.427694 65.04171,25.158501 63.4232,25.058707 61.802594,25.039419 v -0.0025 c -0.01132,0 -0.0218,0.0025 -0.03145,0.0025 -0.01006,0 -0.02055,-0.0025 -0.03061,-0.0025 v 0.0025 c -1.623542,0.01929 1.694529,0.119082 0.08315,0.388275 C 103.45248,-10.119144 35.608694,23.413784 31.720951,37.431921 21.677565,29.60059 12.947929,42.000724 20.743178,51.728897 Z"
     fill="#478cbf"
     id="path10"
     style="fill:#47bf59;fill-opacity:1;stroke-width:4.16261"
     sodipodi:nodetypes="cccccccccssssccccccccccccccscccccc" />
  <path
     d="m 88.221971,97.951009 -0.470039,6.735261 c -0.05661,0.81177 -0.702332,1.45792 -1.514103,1.5162 L 70.0716,107.35598 c -0.03941,0.003 -0.07883,0.004 -0.117824,0.004 -0.803385,0 -1.496493,-0.58954 -1.615156,-1.39628 L 67.411541,99.676867 H 54.220687 l -0.927079,6.287033 c -0.124533,0.84615 -0.880956,1.45456 -1.73298,1.39208 l -16.166229,-1.15351 c -0.811771,-0.0583 -1.457497,-0.70443 -1.514103,-1.5162 L 33.410257,97.951009 19.763201,96.635236 c 0.0063,1.466722 0.02516,3.073491 0.02516,3.393424 0,14.41311 18.283709,21.34085 40.999871,21.42052 h 0.02767 0.02809 c 22.716162,-0.0797 40.993578,-7.00741 40.993578,-21.42052 0,-0.325803 0.0197,-1.925863 0.0264,-3.393424 z"
     fill="#478cbf"
     id="path12"
     style="stroke-width:4.16261;fill:#47bf59;fill-opacity:1" />
  <path
     d="m 49.721389,61.141394 c 0,5.05344 -4.094494,9.147096 -9.146257,9.147096 -5.049248,0 -9.145,-4.093656 -9.145,-9.147096 0,-5.050086 4.095752,-9.141645 9.145,-9.141645 5.051763,0 9.146257,4.091559 9.146257,9.141645"
     fill="#ffffff"
     id="path14"
     style="stroke-width:4.16261" />
  <path
     d="m 47.520625,61.683905 c 0,3.351909 -2.716664,6.068573 -6.071089,6.068573 -3.352747,0 -6.071089,-2.716664 -6.071089,-6.068573 0,-3.351909 2.718342,-6.071089 6.071089,-6.071089 3.354425,0 6.071089,2.71918 6.071089,6.071089"
     fill="#414042"
     id="path16"
     style="stroke-width:4.16261" />
  <path
     d="m 62.088966,71.120641 c -1.626057,0 -2.943927,-1.198368 -2.943927,-2.675573 v -8.420024 c 0,-1.475947 1.31787,-2.675573 2.943927,-2.675573 1.626057,0 2.946862,1.199626 2.946862,2.675573 v 8.420024 c 0,1.477205 -1.320805,2.675573 -2.946862,2.675573"
     fill="#ffffff"
     id="path18"
     style="stroke-width:4.16261" />
  <path
     d="m 74.458071,61.141394 c 0,5.05344 4.094494,9.147096 9.147096,9.147096 5.048828,0 9.144161,-4.093656 9.144161,-9.147096 0,-5.050086 -4.095333,-9.141645 -9.144161,-9.141645 -5.052602,0 -9.147096,4.091559 -9.147096,9.141645"
     fill="#ffffff"
     id="path20"
     style="stroke-width:4.16261" />
  <path
     d="m 76.659391,61.683905 c 0,3.351909 2.715826,6.068573 6.067734,6.068573 3.355263,0 6.071089,-2.716664 6.071089,-6.068573 0,-3.351909 -2.715826,-6.071089 -6.071089,-6.071089 -3.351908,0 -6.067734,2.71918 -6.067734,6.071089"
     fill="#414042"
     id="path22"
     style="stroke-width:4.16261" />
</svg>
